<svg xmlns="http://www.w3.org/2000/svg" xmlns:xlink="http://www.w3.org/1999/xlink" width="600" zoomAndPan="magnify" viewBox="0 0 450 299.999988" height="400" preserveAspectRatio="xMidYMid meet" version="1.0"><defs><clipPath id="5ee2d8c339"><path d="M 61.71875 18.804688 L 130.195312 18.804688 L 130.195312 41.316406 L 61.71875 41.316406 Z M 61.71875 18.804688 " clip-rule="nonzero"/></clipPath><clipPath id="33425c8c33"><path d="M 121.570312 19.890625 L 133.761719 19.890625 L 133.761719 30.207031 L 121.570312 30.207031 Z M 121.570312 19.890625 " clip-rule="nonzero"/></clipPath><clipPath id="b71c4fcb12"><path d="M 61.71875 160.769531 L 140.515625 160.769531 L 140.515625 182.34375 L 61.71875 182.34375 Z M 61.71875 160.769531 " clip-rule="nonzero"/></clipPath><clipPath id="222469f737"><path d="M 136.359375 165.226562 L 144.800781 165.226562 L 144.800781 174.605469 L 136.359375 174.605469 Z M 136.359375 165.226562 " clip-rule="nonzero"/></clipPath><clipPath id="f2363eee86"><path d="M 321.207031 30 L 391.5625 30 L 391.5625 49.699219 L 321.207031 49.699219 Z M 321.207031 30 " clip-rule="nonzero"/></clipPath><clipPath id="8950ccfb0d"><path d="M 317.308594 44.890625 L 324.8125 44.890625 L 324.8125 52.394531 L 317.308594 52.394531 Z M 317.308594 44.890625 " clip-rule="nonzero"/></clipPath><clipPath id="7647a56d4f"><path d="M 353.125 127.75 L 419.726562 127.75 L 419.726562 150.261719 L 353.125 150.261719 Z M 353.125 127.75 " clip-rule="nonzero"/></clipPath><clipPath id="259eef33fe"><path d="M 348.664062 129.847656 L 359.917969 129.847656 L 359.917969 139.230469 L 348.664062 139.230469 Z M 348.664062 129.847656 " clip-rule="nonzero"/></clipPath></defs><g clip-path="url(#5ee2d8c339)"><path stroke-linecap="round" transform="matrix(0.677993, 0, 0, 0.681405, 61.718742, 18.81614)" fill="none" stroke-linejoin="miter" d="M 1.00251 31.105676 C 15.388944 2.981362 73.850757 -8.827869 99.449046 10.663095 " stroke="#2f4fa1" stroke-width="2" stroke-opacity="1" stroke-miterlimit="4"/></g><g clip-path="url(#33425c8c33)"><path stroke-linecap="round" transform="matrix(0.676496, 0, 0, 0.6879, 121.577248, 19.890007)" fill="none" stroke-linejoin="miter" d="M 1.750892 12.504984 C 19.500918 13.044442 18.473103 15.565702 13.264735 1.693095 " stroke="#2f4fa1" stroke-width="2" stroke-opacity="1" stroke-miterlimit="4"/></g><g clip-path="url(#b71c4fcb12)"><path stroke-linecap="round" transform="matrix(0.679274, 0, 0, 0.673185, 61.718742, 160.787154)" fill="none" stroke-linejoin="miter" d="M 2.001227 29.387409 C 2.001227 29.387409 15.653203 29.555685 23.813334 26.927089 C 29.799731 25.000612 38.264646 19.824657 38.264646 19.824657 C 38.264646 19.824657 51.594586 11.94467 48.489251 5.985358 C 45.498928 0.246546 36.642971 0.821007 31.927461 5.254225 C 27.821518 9.118784 25.929563 16.238624 29.885991 19.557735 C 33.848169 22.871043 50.156931 29.578896 64.159694 30.211384 C 84.861931 31.139806 100.710644 24.112808 114.195851 12.542342 " stroke="#2f4fa1" stroke-width="2.245" stroke-opacity="1" stroke-miterlimit="4"/></g><g clip-path="url(#222469f737)"><path stroke-linecap="round" transform="matrix(0.603029, 0, 0, 0.551434, 136.358801, 165.228692)" fill="none" stroke-linejoin="miter" d="M 7.223599 15.679686 C 14.174183 -0.662656 16.149885 1.214553 1.328883 1.02329 " stroke="#2f4fa1" stroke-width="2" stroke-opacity="1" stroke-miterlimit="4"/></g><g clip-path="url(#f2363eee86)"><path stroke-linecap="round" transform="matrix(0.622597, 0, 0, 0.614813, 321.208752, 30.012467)" fill="none" stroke-linejoin="miter" d="M 111.130845 2.000154 C 111.130845 2.000154 102.296874 10.132708 95.890991 14.326056 C 85.739454 20.965524 77.43251 25.158872 67.525664 26.975989 C 45.773266 30.972377 23.939305 30.788124 1.910846 30.788124 " stroke="#2f4fa1" stroke-width="2.245" stroke-opacity="1" stroke-miterlimit="4"/></g><g clip-path="url(#8950ccfb0d)"><path stroke-linecap="round" transform="matrix(0.441433, 0, 0, 0.441433, 317.309515, 44.889162)" fill="none" stroke-linejoin="miter" d="M 15.572183 1.9324 C -1.41793 7.109075 -1.249799 4.392427 8.139008 15.860753 " stroke="#2f4fa1" stroke-width="2" stroke-opacity="1" stroke-miterlimit="4"/></g><g clip-path="url(#7647a56d4f)"><path stroke-linecap="round" transform="matrix(0.820796, 0, 0, 0.833818, 353.183241, 127.748807)" fill="none" stroke-linejoin="miter" d="M 79.801051 25.425699 C 68.374447 3.093381 21.954167 -6.285536 1.632802 9.192957 " stroke="#2f4fa1" stroke-width="2" stroke-opacity="1" stroke-miterlimit="4"/></g><g clip-path="url(#259eef33fe)"><path stroke-linecap="round" transform="matrix(0.750192, 0, 0, 0.781705, 348.664785, 129.849364)" fill="none" stroke-linejoin="miter" d="M 13.334156 10.451732 C -0.766392 10.876485 0.0511064 12.880319 4.190669 1.861731 " stroke="#2f4fa1" stroke-width="2" stroke-opacity="1" stroke-miterlimit="4"/></g></svg>